<svg width="36" height="36" viewBox="0 0 36 36" fill="none" xmlns="http://www.w3.org/2000/svg">
<g clip-path="url(#clip0_34_4)">
<path d="M8.43745 34.3125C8.43745 34.7601 8.25966 35.1893 7.94319 35.5058C7.62672 35.8222 7.1975 36 6.74995 36C6.3024 36 5.87317 35.8222 5.55671 35.5058C5.24024 35.1893 5.06245 34.7601 5.06245 34.3125C5.06245 33.865 5.24024 33.4357 5.55671 33.1193C5.87317 32.8028 6.3024 32.625 6.74995 32.625C7.1975 32.625 7.62672 32.8028 7.94319 33.1193C8.25966 33.4357 8.43745 33.865 8.43745 34.3125ZM9.35545 25.9335C9.63817 26.028 9.87185 26.2308 10.0052 26.4974C10.1385 26.764 10.1605 27.0727 10.0664 27.3555L8.94145 30.7305C8.89908 30.8758 8.82783 31.011 8.73197 31.1281C8.63611 31.2452 8.51761 31.3418 8.38357 31.412C8.24952 31.4822 8.10268 31.5247 7.95184 31.5369C7.801 31.549 7.64926 31.5306 7.50569 31.4828C7.36213 31.4349 7.22969 31.3586 7.11631 31.2584C7.00294 31.1581 6.91095 31.0361 6.84585 30.8994C6.78075 30.7628 6.74389 30.6145 6.73746 30.4633C6.73104 30.3121 6.75518 30.1612 6.80845 30.0195L7.93345 26.6445C8.02792 26.3618 8.23073 26.1281 8.49735 25.9948C8.76396 25.8615 9.07259 25.8394 9.35545 25.9335V25.9335ZM17.4374 34.3125C17.4374 34.7601 17.2597 35.1893 16.9432 35.5058C16.6267 35.8222 16.1975 36 15.7499 36C15.3024 36 14.8732 35.8222 14.5567 35.5058C14.2402 35.1893 14.0624 34.7601 14.0624 34.3125C14.0624 33.865 14.2402 33.4357 14.5567 33.1193C14.8732 32.8028 15.3024 32.625 15.7499 32.625C16.1975 32.625 16.6267 32.8028 16.9432 33.1193C17.2597 33.4357 17.4374 33.865 17.4374 34.3125V34.3125ZM18.3554 25.9335C18.6382 26.028 18.8718 26.2308 19.0052 26.4974C19.1385 26.764 19.1605 27.0727 19.0664 27.3555L17.9414 30.7305C17.8991 30.8758 17.8278 31.011 17.732 31.1281C17.6361 31.2452 17.5176 31.3418 17.3836 31.412C17.2495 31.4822 17.1027 31.5247 16.9518 31.5369C16.801 31.549 16.6493 31.5306 16.5057 31.4828C16.3621 31.4349 16.2297 31.3586 16.1163 31.2584C16.0029 31.1581 15.9109 31.0361 15.8459 30.8994C15.7808 30.7628 15.7439 30.6145 15.7375 30.4633C15.731 30.3121 15.7552 30.1612 15.8084 30.0195L16.9334 26.6445C17.0279 26.3618 17.2307 26.1281 17.4973 25.9948C17.764 25.8615 18.0726 25.8394 18.3554 25.9335V25.9335ZM26.4374 34.3125C26.4374 34.7601 26.2597 35.1893 25.9432 35.5058C25.6267 35.8222 25.1975 36 24.7499 36C24.3024 36 23.8732 35.8222 23.5567 35.5058C23.2402 35.1893 23.0624 34.7601 23.0624 34.3125C23.0624 33.865 23.2402 33.4357 23.5567 33.1193C23.8732 32.8028 24.3024 32.625 24.7499 32.625C25.1975 32.625 25.6267 32.8028 25.9432 33.1193C26.2597 33.4357 26.4374 33.865 26.4374 34.3125ZM27.3554 25.9335C27.6382 26.028 27.8718 26.2308 28.0052 26.4974C28.1385 26.764 28.1605 27.0727 28.0664 27.3555L26.9414 30.7305C26.8991 30.8758 26.8278 31.011 26.732 31.1281C26.6361 31.2452 26.5176 31.3418 26.3836 31.412C26.2495 31.4822 26.1027 31.5247 25.9518 31.5369C25.801 31.549 25.6493 31.5306 25.5057 31.4828C25.3621 31.4349 25.2297 31.3586 25.1163 31.2584C25.0029 31.1581 24.9109 31.0361 24.8459 30.8994C24.7808 30.7628 24.7439 30.6145 24.7375 30.4633C24.731 30.3121 24.7552 30.1612 24.8084 30.0195L25.9334 26.6445C26.0279 26.3618 26.2307 26.1281 26.4973 25.9948C26.764 25.8615 27.0726 25.8394 27.3554 25.9335V25.9335ZM30.1612 10.1858C29.694 7.83037 28.4855 5.68623 26.7124 4.06684C24.9393 2.44744 22.6947 1.43773 20.3067 1.18533C17.9188 0.93293 15.5127 1.45108 13.4402 2.66403C11.3678 3.87698 9.73778 5.7211 8.78845 7.92676C7.72383 7.80412 6.64539 7.90005 5.61914 8.2087C4.59289 8.51735 3.64044 9.03221 2.82009 9.72176C1.99974 10.4113 1.32877 11.261 0.848246 12.2189C0.367723 13.1768 0.0877627 14.2227 0.025507 15.2925C-0.0367486 16.3624 0.12001 17.4337 0.486185 18.4408C0.852361 19.448 1.42025 20.3698 2.15508 21.1499C2.8899 21.9299 3.77621 22.5518 4.75973 22.9774C5.74325 23.403 6.80329 23.6233 7.87495 23.625H29.2499C30.9624 23.627 32.6117 22.9779 33.8635 21.8094C35.1154 20.6409 35.8763 19.0402 35.9922 17.3317C36.108 15.6231 35.5702 13.9343 34.4875 12.6075C33.4048 11.2807 31.8583 10.415 30.1612 10.1858V10.1858Z" fill="#85B6FF"/>
</g>
<defs>
<clipPath id="clip0_34_4">
<rect width="36" height="36" fill="white"/>
</clipPath>
</defs>
</svg>
