<svg width="36" height="36" viewBox="0 0 36 36" fill="none" xmlns="http://www.w3.org/2000/svg">
<path d="M18 27V24.75C18.8699 24.6748 19.6853 24.2951 20.3027 23.6777C20.9201 23.0603 21.2998 22.2449 21.375 21.375H23.625C23.5523 22.8433 22.9363 24.2322 21.8968 25.2718C20.8572 26.3113 19.4683 26.9273 18 27Z" fill="#60BCFF"/>
<path d="M18 31.5C15.3157 31.4967 12.7423 30.4289 10.8442 28.5308C8.94606 26.6327 7.87827 24.0593 7.875 21.375C7.93555 19.4015 8.51528 17.4787 9.55575 15.8006L17.0471 3.86663C17.1553 3.71477 17.2983 3.59096 17.464 3.50554C17.6298 3.42012 17.8135 3.37555 18 3.37555C18.1865 3.37555 18.3702 3.42012 18.536 3.50554C18.7017 3.59096 18.8447 3.71477 18.9529 3.86663L26.4116 15.7421C27.4696 17.4358 28.0607 19.3791 28.125 21.375C28.1217 24.0593 27.0539 26.6327 25.1558 28.5308C23.2577 30.4289 20.6843 31.4967 18 31.5ZM18 6.57901L11.4953 16.938C10.6571 18.2712 10.1845 19.8014 10.125 21.375C10.125 23.4636 10.9547 25.4666 12.4315 26.9435C13.9084 28.4203 15.9114 29.25 18 29.25C20.0886 29.25 22.0916 28.4203 23.5685 26.9435C25.0453 25.4666 25.875 23.4636 25.875 21.375C25.8108 19.7794 25.3265 18.229 24.471 16.8806L18 6.57901Z" fill="#60BCFF"/>
</svg>
