<svg width="36" height="36" viewBox="0 0 36 36" fill="none" xmlns="http://www.w3.org/2000/svg">
<path d="M18 6.42C18.2652 6.42 18.5196 6.31465 18.7071 6.12711C18.8946 5.93957 19 5.68522 19 5.42V1.91C19 1.64479 18.8946 1.39043 18.7071 1.2029C18.5196 1.01536 18.2652 0.910004 18 0.910004C17.7348 0.910004 17.4804 1.01536 17.2929 1.2029C17.1054 1.39043 17 1.64479 17 1.91V5.42C17 5.68522 17.1054 5.93957 17.2929 6.12711C17.4804 6.31465 17.7348 6.42 18 6.42Z" fill="#FFE178"/>
<path d="M18 29.58C17.7348 29.58 17.4804 29.6853 17.2929 29.8729C17.1054 30.0604 17 30.3148 17 30.58V34.09C17 34.3552 17.1054 34.6096 17.2929 34.7971C17.4804 34.9846 17.7348 35.09 18 35.09C18.2652 35.09 18.5196 34.9846 18.7071 34.7971C18.8946 34.6096 19 34.3552 19 34.09V30.58C19 30.3148 18.8946 30.0604 18.7071 29.8729C18.5196 29.6853 18.2652 29.58 18 29.58Z" fill="#FFE178"/>
<path d="M8.39999 9.80999C8.59129 9.97382 8.83737 10.0594 9.08905 10.0497C9.34072 10.04 9.57946 9.93565 9.75756 9.75756C9.93565 9.57946 10.04 9.34072 10.0497 9.08905C10.0594 8.83737 9.97382 8.59129 9.80999 8.39999L7.32999 5.91999C7.13869 5.75617 6.89261 5.67056 6.64094 5.68028C6.38926 5.69 6.15052 5.79433 5.97243 5.97243C5.79433 6.15052 5.69 6.38926 5.68028 6.64094C5.67056 6.89261 5.75617 7.13869 5.91999 7.32999L8.39999 9.80999Z" fill="#FFE178"/>
<path d="M27.6 26.19C27.4087 26.0262 27.1626 25.9406 26.911 25.9503C26.6593 25.96 26.4205 26.0644 26.2424 26.2424C26.0644 26.4205 25.96 26.6593 25.9503 26.911C25.9406 27.1626 26.0262 27.4087 26.19 27.6L28.67 30.08C28.8613 30.2438 29.1074 30.3294 29.3591 30.3197C29.6107 30.31 29.8495 30.2057 30.0276 30.0276C30.2057 29.8495 30.31 29.6107 30.3197 29.3591C30.3294 29.1074 30.2438 28.8613 30.08 28.67L27.6 26.19Z" fill="#FFE178"/>
<path d="M6.42 18C6.42 17.7348 6.31465 17.4804 6.12711 17.2929C5.93957 17.1054 5.68522 17 5.42 17H1.91C1.64479 17 1.39043 17.1054 1.2029 17.2929C1.01536 17.4804 0.910004 17.7348 0.910004 18C0.910004 18.2652 1.01536 18.5196 1.2029 18.7071C1.39043 18.8946 1.64479 19 1.91 19H5.42C5.68522 19 5.93957 18.8946 6.12711 18.7071C6.31465 18.5196 6.42 18.2652 6.42 18Z" fill="#FFE178"/>
<path d="M34.09 17H30.58C30.3148 17 30.0604 17.1054 29.8729 17.2929C29.6853 17.4804 29.58 17.7348 29.58 18C29.58 18.2652 29.6853 18.5196 29.8729 18.7071C30.0604 18.8946 30.3148 19 30.58 19H34.09C34.3552 19 34.6096 18.8946 34.7971 18.7071C34.9846 18.5196 35.09 18.2652 35.09 18C35.09 17.7348 34.9846 17.4804 34.7971 17.2929C34.6096 17.1054 34.3552 17 34.09 17Z" fill="#FFE178"/>
<path d="M8.39999 26.19L5.91999 28.67C5.75617 28.8613 5.67056 29.1074 5.68028 29.3591C5.69 29.6107 5.79433 29.8495 5.97243 30.0276C6.15052 30.2057 6.38926 30.31 6.64094 30.3197C6.89261 30.3294 7.13869 30.2438 7.32999 30.08L9.80999 27.6C9.97382 27.4087 10.0594 27.1626 10.0497 26.911C10.04 26.6593 9.93565 26.4205 9.75756 26.2424C9.57946 26.0644 9.34072 25.96 9.08905 25.9503C8.83737 25.9406 8.59129 26.0262 8.39999 26.19Z" fill="#FFE178"/>
<path d="M27.6 9.80999L30.08 7.32999C30.2438 7.13869 30.3294 6.89261 30.3197 6.64094C30.31 6.38926 30.2057 6.15052 30.0276 5.97243C29.8495 5.79433 29.6107 5.69 29.3591 5.68028C29.1074 5.67056 28.8613 5.75617 28.67 5.91999L26.19 8.39999C26.0262 8.59129 25.9406 8.83737 25.9503 9.08905C25.96 9.34072 26.0644 9.57946 26.2424 9.75756C26.4205 9.93565 26.6593 10.04 26.911 10.0497C27.1626 10.0594 27.4087 9.97382 27.6 9.80999Z" fill="#FFE178"/>
<path d="M18 28C23.5228 28 28 23.5228 28 18C28 12.4772 23.5228 8 18 8C12.4772 8 8 12.4772 8 18C8 23.5228 12.4772 28 18 28Z" fill="#FFE178"/>
</svg>
