<svg width="57" height="57" viewBox="0 0 57 57" fill="none" xmlns="http://www.w3.org/2000/svg">
<path d="M11.9557 26.4029C9.70947 26.9681 7.74693 28.3341 6.43682 30.2443C5.12671 32.1545 4.55922 34.4773 4.84095 36.7764C5.12268 39.0754 6.23426 41.1925 7.96683 42.7298C9.69939 44.2671 11.9337 45.1189 14.25 45.125H40.375C42.0518 45.1239 43.7094 44.7676 45.2386 44.0797C46.7679 43.3917 48.1341 42.3877 49.2473 41.1338C50.3606 39.8798 51.1956 38.4042 51.6975 36.8043C52.1994 35.2043 52.3567 33.5162 52.1592 31.851C51.9616 30.1858 51.4137 28.5814 50.5513 27.1433C49.689 25.7051 48.5319 24.4659 47.1562 23.5072C45.7804 22.5485 44.2172 21.8921 42.5695 21.5811C40.9217 21.27 39.2268 21.3115 37.5962 21.7027L34.4375 22.5625" stroke="black" stroke-width="4.75" stroke-linecap="round" stroke-linejoin="round"/>
<path d="M37.5962 21.7027C36.7845 18.4884 34.7808 15.7029 31.9915 13.911C29.2022 12.1191 25.8359 11.4548 22.5749 12.0529C19.314 12.651 16.4025 14.4666 14.4306 17.1317C12.4587 19.7968 11.5739 23.112 11.9557 26.4052C11.9557 26.4052 12.3191 28.5 13.0625 29.6875" stroke="black" stroke-width="4.75" stroke-linecap="round" stroke-linejoin="round"/>
</svg>
